<svg width="180" height="112" viewBox="0 0 180 112" fill="none" xmlns="http://www.w3.org/2000/svg">
<path d="M71.6025 0C87.9593 9.84218e-05 102.576 7.36071 112.243 18.9121C113.591 18.7508 114.962 18.667 116.354 18.667C132.698 18.667 146.332 30.123 149.48 45.3506C166.609 46.9859 180 61.2452 180 78.5957C180 97.0439 164.861 111.999 146.188 111.999C145.52 111.999 144.857 111.978 144.199 111.94V112H28.8398V111.639C12.5235 109.263 0 95.375 0 78.5957C0.000146387 65.3908 7.75646 53.9757 19.0137 48.5537C20.844 21.4359 43.6893 0 71.6025 0Z" fill="#D9D9D9"/>
</svg>
